<svg id="Camada_1" data-name="Camada 1" xmlns="http://www.w3.org/2000/svg" viewBox="0 0 399 398.5"><defs><style>.cls-1{fill:#eaeaea;}.cls-2{fill:#898989;}</style></defs><title>icon_padrao</title><rect class="cls-1" width="399" height="398.5" rx="43" ry="43"/><circle class="cls-2" cx="200.5" cy="147.5" r="92"/><path class="cls-2" d="M159,274.5h83a111,111,0,0,1,111,111v13a0,0,0,0,1,0,0H48a0,0,0,0,1,0,0v-13A111,111,0,0,1,159,274.5Z"/><path class="cls-1" d="M154,194.54a4.26,4.26,0,0,0-3.11,7.17,68.86,68.86,0,0,0,100.16,0,4.26,4.26,0,0,0-3.11-7.17Z" transform="translate(0 -0.5)"/></svg>